<svg version="1.1" viewBox="0.0 0.0 960.0 960.0" fill="none" stroke="none" stroke-linecap="square" stroke-miterlimit="10" xmlns:xlink="http://www.w3.org/1999/xlink" xmlns="http://www.w3.org/2000/svg"><clipPath id="p.0"><path d="m0 0l960.0 0l0 960.0l-960.0 0l0 -960.0z" clip-rule="nonzero"/></clipPath><g clip-path="url(#p.0)"><path fill="#000000" fill-opacity="0.0" d="m0 0l960.0 0l0 960.0l-960.0 0z" fill-rule="evenodd"/><path fill="#ffab40" d="m343.60632 343.47955l-130.29921 407.33856l-96.72441 -30.897644l130.29921 -407.33856z" fill-rule="evenodd"/><path fill="#ffab40" d="m716.69995 291.2516l131.52759 406.96063l-96.59845 31.275574l-131.52753 -406.9606z" fill-rule="evenodd"/><path fill="#ffd966" d="m469.32162 -7.9789667l0 0c93.444855 0 169.19687 75.75201 169.19687 169.19685l0 0c0 44.873795 -17.82605 87.90968 -49.55664 119.64024c-31.73053 31.73056 -74.76642 49.55661 -119.64023 49.55661l0 0c-93.444855 0 -169.19687 -75.752014 -169.19687 -169.19685l0 0c0 -93.44484 75.752014 -169.19685 169.19687 -169.19685z" fill-rule="evenodd"/><path fill="#000000" d="m479.00662 65.390144l16.421875 0l0 16.421875l-16.421875 0l0 -16.421875zm-68.625 0l16.421875 0l0 16.421875l-16.421875 0l0 -16.421875zm0 43.408203l117.390594 0l0 40.437492q0 13.6875 -1.671875 20.90625q-2.328125 10.078125 -8.40625 17.203125q-7.8593445 9.296875 -20.078094 13.890625q-12.203125 4.609375 -27.890625 4.609375q-13.375 0 -23.703125 -3.125q-10.328125 -3.109375 -17.109375 -8.0q-6.765625 -4.890625 -10.65625 -10.703125q-3.875 -5.796875 -5.875 -14.0q-2.0 -8.203125 -2.0 -18.859375l0 -42.359367zm13.859375 15.53125l0 25.062492q0 11.609375 2.15625 18.21875q2.15625 6.609375 6.09375 10.53125q5.515625 5.53125 14.84375 8.609375q9.328125 3.078125 22.625 3.078125q18.421875 0 28.3125 -6.046875q9.890625 -6.046875 13.25 -14.6875q2.4062195 -6.25 2.4062195 -20.09375l0 -24.671867l-89.68747 0z" fill-rule="nonzero"/><path fill="#e69138" d="m237.41733 275.06744l0 0c0 -17.636444 14.29715 -31.933578 31.933594 -31.933578l421.2982 0c8.469299 0 16.591736 3.3644104 22.580444 9.353119c5.9887085 5.9887238 9.353149 14.11113 9.353149 22.58046l0 577.29816c0 17.636475 -14.29718 31.933594 -31.933594 31.933594l-421.2982 0l0 0c-17.636444 0 -31.933594 -14.297119 -31.933594 -31.933594z" fill-rule="evenodd"/><path fill="#000000" d="m491.1328 584.0759l-45.890625 84.578125q-2.9375 5.46875 -7.046875 9.078125q-4.09375 3.609375 -11.3125 3.609375q-6.640625 0 -11.046875 -3.703125q-4.390625 -3.71875 -7.3125 -8.796875l-48.4375 -83.203125q1.171875 26.375 2.140625 48.640625q0.390625 9.5625 0.78125 19.140625q0.390625 9.5625 0.78125 17.765625q0.390625 8.203125 0.6875 14.5625q0.296875 6.34375 0.484375 9.265625q0.203125 2.9375 -0.09375 5.28125q-0.296875 2.34375 -1.46875 4.0q-1.171875 1.65625 -3.328125 2.546875q-2.140625 0.875 -5.84375 0.875l-21.484375 0q-3.515625 0 -6.546875 -2.25q-3.03125 -2.25 -3.03125 -8.890625l0 -248.43753q0 -3.703125 1.078125 -7.40625q1.078125 -3.71875 3.703125 -6.75q2.640625 -3.03125 6.9375 -4.875q4.296875 -1.859375 10.546875 -1.859375l62.890625 0q7.625 0 13.09375 2.640625q5.46875 2.625 9.375 8.6875l52.53125 83.390656l35.15625 -67.37503q3.125 -6.0625 6.046875 -11.03125q2.9375 -4.984375 6.9375 -8.59375q4.015625 -3.625 9.96875 -5.671875q5.953125 -2.046875 15.328125 -2.046875l51.953125 0q7.421875 0 12.796875 1.953125q5.375 1.953125 8.78125 5.28125q3.421875 3.3125 4.984375 7.8125q1.5625 4.484375 1.5625 9.75l0 228.51566q0 6.0625 -0.984375 11.046875q-0.96875 4.96875 -4.0 8.59375q-3.015625 3.609375 -8.59375 5.5625q-5.5625 1.953125 -14.546875 1.953125l-90.234375 0q-8.0 0 -13.28125 -1.75q-5.265625 -1.765625 -8.390625 -5.078125q-3.125 -3.328125 -4.40625 -8.40625q-1.265625 -5.078125 -1.265625 -11.921875l0 -96.484375zm-74.796875 -134.95316q-2.34375 -3.90625 -5.1875 -4.6875q-2.828125 -0.78125 -5.953125 -0.78125l-9.765625 0l70.3125 111.71878l8.015625 -15.046875l-57.421875 -91.203156zm203.90625 7.03125q0 -4.296875 -0.59375 -6.828125q-0.578125 -2.546875 -2.34375 -3.8125q-1.75 -1.28125 -4.6875 -1.5625q-2.921875 -0.296875 -7.609375 -0.296875l0 247.65628q4.6875 0 7.609375 -0.296875q2.9375 -0.296875 4.6875 -1.5625q1.765625 -1.265625 2.34375 -3.703125q0.59375 -2.453125 0.59375 -6.9375l0 -222.65628z" fill-rule="nonzero"/></g></svg>